<svg width="1024" height="1024" viewBox="0 0 1024 1024" xmlns="http://www.w3.org/2000/svg" style="display:block" preserveAspectRatio="xMidYMid meet"><svg x="369" y="308" width="286" height="268" xmlns="http://www.w3.org/2000/svg" style="display:block" preserveAspectRatio="none"><svg version="1.1" xmlns="http://www.w3.org/2000/svg" style="display: block;" width="286" height="268" viewBox="0.00 -1.55 2048.00 1919.10" preserveAspectRatio="none"><g id="svg-group-1a956056-abd4-4e50-ba4a-c708a5ddacfc">
<path transform="translate(0,0)" fill="rgba(255, 255, 255, 1)" d="M 1003.93 0 L 1047.77 0 C 1052.22 6.90743 1060.2 8.01652 1067.88 9.54954 C 1173.8 30.6932 1239.6 138.173 1210.39 242.277 C 1193.07 304.023 1161.69 348.987 1101.93 374.576 C 1096.01 377.136 1089.95 379.353 1083.78 381.216 C 1075.24 383.801 1047.31 389.241 1047.47 398.498 C 1047.77 414.527 1048.52 432.742 1048.59 448.927 L 1048.76 563.422 C 1048.78 582.112 1047.63 615.606 1051.13 632.721 C 1058.39 635.631 1144.18 634.221 1158.23 634.039 L 1167.62 624.468 C 1168.08 602.991 1167.42 581.344 1167.3 559.93 C 1167.22 545.796 1169.58 534.465 1180.72 524.753 C 1201.31 506.803 1234.27 515.068 1259.71 510.259 C 1273.63 508.372 1293.04 508.831 1307.43 508.82 C 1329.53 508.742 1351.62 508.829 1373.71 509.082 C 1386.87 508.704 1403 509.48 1415.34 508.697 C 1426.84 498.423 1438.21 487.46 1449.9 477.299 C 1452.79 474.786 1455.5 470.554 1458.19 467.781 C 1470.22 453.272 1484.88 440.562 1496.62 425.837 C 1508.98 410.329 1521.45 409.125 1539.49 407.759 C 1548.59 394.045 1547.13 378.195 1551.66 362.798 C 1566.83 311.199 1613.75 273.719 1665.49 263.235 C 1709.12 254.396 1750.8 263.763 1787.7 288.516 C 1820.03 310.199 1844.45 344.354 1851.97 382.931 C 1861.2 430.293 1852.39 471.892 1824.91 511.938 C 1803.03 543.818 1764.94 564.715 1727.26 571.477 C 1684.95 579.069 1639.74 565.939 1605.02 541.496 C 1581.94 525.242 1564.72 502.172 1553.96 476.257 C 1551.19 469.587 1550.62 461.42 1546.41 455.455 C 1544.3 452.452 1541.67 450.451 1537.81 451.175 C 1525.22 453.533 1475.13 514.443 1463.19 525.774 C 1454.13 534.369 1442.4 543.674 1430.89 548.646 C 1417.64 554.369 1389 551.574 1374.14 551.504 C 1342.98 551.374 1311.82 551.411 1280.66 551.614 C 1267.38 551.701 1219.38 551.04 1210.25 557.962 C 1206.85 568.838 1210.55 602.463 1213.81 614.572 L 1209.76 624.596 L 1218.49 633.958 C 1269.31 634.646 1311.35 637.124 1350.32 675.641 C 1374.82 699.858 1387.8 735.288 1388.11 769.487 C 1391.88 830.811 1386.4 900.181 1389.34 961.924 C 1392.3 965.023 1395.05 968.012 1398.24 970.887 L 1546.32 970.802 C 1567.63 970.795 1600.97 969.707 1621.43 971.056 C 1629.93 970.616 1640.1 970.676 1648.76 970.489 C 1652.75 967.035 1654.33 965.791 1657.58 961.538 C 1659.29 937.249 1666.86 913.735 1679.63 893.007 C 1707.77 846.484 1754.49 814.816 1807.05 802.211 C 1891.93 782.517 1979.73 820.496 2023.51 895.841 C 2032.67 911.838 2036.58 928.649 2042.96 945.682 C 2043.77 947.861 2046.06 948.955 2048 949.93 L 2048 1037.22 C 2039.02 1044.52 2036.43 1058.28 2032.15 1069.09 C 2025.37 1086.24 2016.52 1102.5 2005.79 1117.5 C 1991.91 1137.26 1988.24 1139.85 1968.53 1152.93 C 1940.99 1171.21 1915.15 1183.86 1882.13 1189.49 C 1832.74 1198.16 1781.93 1186.72 1741.02 1157.71 C 1688.84 1120.72 1667.34 1083.03 1656.84 1021.17 C 1654.38 1017.73 1652.83 1015.51 1649.99 1012.42 C 1636.24 1011.63 1619.31 1012.53 1605.27 1012.78 C 1586.7 1012.96 1568.13 1013.01 1549.56 1012.91 L 1450.74 1012.88 C 1433.65 1012.88 1416.47 1012.8 1399.37 1012.93 C 1396.47 1012.95 1393.2 1013.61 1390.94 1015.52 C 1389.19 1017.01 1388.86 1018.83 1388.44 1020.95 C 1390.12 1044.8 1388.54 1073.83 1389.1 1098.23 C 1389.28 1106.11 1389.46 1137.68 1388.64 1143.49 C 1390 1145.84 1391.13 1148.75 1394.07 1149.27 C 1411.76 1152.42 1441.65 1147.35 1458.3 1152.12 C 1474.19 1154.78 1476.54 1158.74 1486.32 1171.41 C 1501.96 1191.68 1514.77 1214.04 1528.56 1235.6 L 1608.45 1360.75 C 1620.11 1378.97 1629.54 1395.62 1642.07 1413.67 L 1643.46 1413.54 C 1657.89 1412.08 1672.53 1406.79 1686.86 1406.11 C 1774.4 1401.94 1847.34 1461.75 1856.36 1549.62 C 1860.44 1589.35 1842.31 1635.64 1817.51 1667.01 C 1758.71 1730.33 1659.6 1734.82 1594.44 1678.29 C 1560.75 1649.06 1549.54 1619.64 1544.43 1576.31 C 1538.59 1518.05 1564.9 1469.97 1605.01 1430.64 C 1591.17 1417.89 1579.76 1393.75 1569.73 1377.92 C 1565.48 1371.22 1557.63 1362.44 1554.35 1356.25 C 1544.95 1338.47 1534.15 1322.66 1523.31 1305.85 C 1499.87 1269.49 1476.07 1222.1 1444.73 1192.41 C 1430.78 1193.06 1412 1194.28 1397.65 1194 C 1395.76 1193.96 1390.35 1199.88 1388.64 1201.7 C 1389.9 1205.2 1391.57 1209.43 1392.66 1212.9 C 1385.51 1240.46 1387.39 1252.69 1372.43 1279.4 C 1331.48 1352.46 1262.95 1352.92 1189.86 1353.09 L 1101.45 1353.15 C 1091.9 1353.12 1053.78 1350.79 1049.08 1356.69 C 1047.77 1368.92 1048.52 1384.32 1048.64 1396.9 L 1048.76 1451.37 L 1048.59 1515.69 C 1048.53 1527.85 1048.19 1548.19 1049.44 1559.82 L 1050.48 1560.18 C 1062.66 1564.36 1075.31 1566.88 1087.53 1571.16 C 1132.79 1587.03 1167.94 1616.11 1189.38 1659.54 C 1210.2 1701.73 1211.47 1751.16 1196.24 1795.25 C 1179.81 1842.84 1156.5 1872.84 1111.07 1894.64 C 1100.08 1899.92 1074.14 1907.15 1068.02 1916 L 986.751 1916 C 979.559 1905.23 950.652 1902.13 935.994 1892.78 C 919.278 1882.11 912.905 1878.56 897.93 1863.75 C 864.446 1831 845.812 1785.99 846.359 1739.16 C 846.392 1731.68 847.393 1724.95 848.327 1717.92 C 857.333 1650.21 896.68 1595.76 960.592 1570.28 C 976.589 1563.9 991.439 1564.46 1003.45 1552.37 C 1003.65 1545.08 1003.38 1536.76 1003.26 1529.43 C 1002.28 1492.8 1003.3 1454.46 1002.92 1417.65 C 1002.79 1405.46 1002.22 1366.9 1003.68 1356.75 C 1002.18 1355.48 999.757 1353.62 997.73 1353.52 C 965.989 1352.08 933.877 1352.99 902.077 1353.12 C 898.401 1353.13 891.798 1354.35 888.939 1356.59 C 886.427 1364.74 887.647 1374.79 886.706 1382.96 C 884.427 1402.75 884.244 1420.72 884.086 1440.63 C 867.639 1463.47 842.453 1477.7 822.778 1496.46 C 802.075 1516.2 782.161 1535.51 759.722 1553.51 C 751.395 1560.18 743.5 1568.46 734.596 1574.53 C 718.836 1584.56 691.935 1582.94 674.266 1582.98 L 618.129 1583.05 C 598.471 1583.11 580.987 1584.33 561.49 1585.11 C 546.829 1585.69 529.227 1584.96 514.367 1584.64 C 497.632 1636.86 485.943 1673.11 433.816 1699.86 C 304.421 1766.25 162.95 1647.47 210.861 1508.95 C 224.517 1469.46 247.635 1442.18 284.968 1423.27 C 323.891 1403.6 369.13 1400.57 410.325 1414.88 C 451.915 1429.01 481.935 1459.04 500.477 1498.23 C 508.351 1514.88 509.237 1531.46 519.753 1543.91 L 616.554 1543.88 C 630.941 1543.88 657.011 1544.59 670.628 1543.03 C 680.423 1539.99 699.356 1540.34 709.965 1540.31 C 728.559 1522.46 748.943 1506.77 768.023 1489.49 C 776.546 1481.77 838.842 1421.6 841.334 1414.79 C 844.022 1407.44 843.233 1361.84 839.984 1355.22 C 832.879 1351.31 811.053 1353.26 801.004 1352.88 C 753.521 1351.04 713.736 1334.58 685.506 1295.29 C 681.445 1289.01 673.059 1278.82 671.204 1271.52 C 665.549 1249.23 663.019 1227.33 662.536 1204.42 C 662.479 1201.77 661.972 1199.04 660.13 1197.1 C 650.869 1193.83 604.721 1194.78 593.148 1195.65 C 574.774 1213.64 557.318 1232.54 540.849 1252.28 C 534.833 1261.21 510.459 1289.21 500.477 1291.54 C 496.736 1292.23 492.523 1292.87 488.743 1292.15 C 482.63 1291 475.573 1284.59 472.161 1279.59 C 470.416 1277.03 468.638 1273.66 469.414 1270.5 C 471.347 1262.61 551.649 1173.38 561.4 1164.15 C 565.416 1160.35 570.394 1157.29 574.986 1154.22 C 592.831 1152.24 637.989 1153.32 658.068 1153.19 C 659.991 1150.18 665.198 1143.11 665.294 1140.27 C 661.475 1132.33 662.993 1083.05 663.159 1071.51 C 662.564 1059.59 665.542 1020.89 660.27 1014.11 C 656.653 1011.98 653.562 1012.22 649.305 1011.93 C 626.132 1013.35 586.71 1013.54 563.915 1010.83 C 524.972 1007.06 477.483 1010.93 437.986 1011.83 C 431.243 1011.98 399.303 1009.62 398.17 1016.33 C 391.113 1056.35 370.973 1106.66 341.251 1135.67 C 296.004 1179.82 225.379 1204.4 163.183 1189.84 C 85.0827 1171.56 37.7718 1122.68 12.8535 1047.85 C 7.28881 1031.14 13.0019 1013.05 0 1001.05 L 0 988.696 C 2.48851 987.551 4.902 985.484 7.15304 983.782 L 7.18282 983.17 C 9.68424 935.009 31.2726 879.858 68.3415 847.423 C 174.076 754.907 333.01 793.508 386.201 923.341 C 391.546 936.388 396.103 960.594 404.351 969.765 L 405.316 970.828 C 415.681 970.703 426.049 970.773 436.412 971.04 C 507.926 968.478 585.476 973.217 656.735 970.465 C 660.255 967.35 662.399 965.501 666.257 962.849 L 665.377 961.26 C 661.262 953.802 662.954 926.653 663.131 917.058 C 662.34 903.851 665.461 842.459 661.037 837.641 C 648.358 833.352 611.655 838.121 595.614 837.296 C 567.118 835.829 561.947 813.823 547.333 793.381 C 535.91 777.402 526.438 760.415 516.314 743.545 C 506.022 726.395 492.783 710.045 482.022 693.102 C 465.138 664.376 448.754 637.689 430.401 609.95 C 416.759 589.333 417.491 587.659 400.027 569.126 C 387.797 575.241 361.141 575.057 346.069 574.111 C 293.436 570.808 239.931 534.751 215.981 488.096 C 204.673 466.068 199.801 427.917 201.905 403.357 C 205.693 359.132 227.829 318.962 262.833 291.368 C 291.008 269.565 337.1 256.054 373.436 260.478 C 432.302 267.645 480.752 302.476 503.633 357.72 C 508.244 369.195 509.791 382.837 515.889 393.501 C 516.688 394.898 523.681 396.749 525.985 396.189 C 538.016 392.956 654.093 393.471 665.321 396.044 C 676.618 398.495 714.793 391.165 722.472 396.252 C 765.658 424.859 807.411 469.371 846.367 504.201 C 861.546 517.772 872.958 525.289 883.914 539.534 L 886.201 609.063 C 886.752 626.155 881.024 627.27 898.498 634.784 C 903.572 633.759 925.996 634.098 932.152 634.104 C 953.654 634.205 975.156 634.15 996.657 633.941 L 1003.66 627.772 L 1005.5 626.054 L 1005.16 624.3 C 1001.34 617.722 1003.06 590.488 1004.97 582.877 C 1006.84 572.906 1006.37 554.22 1006.39 543.304 L 1006.44 479.467 L 1006.45 426.884 C 1006.44 417.903 1006.81 401.975 1005.49 393.583 C 995.189 387.031 979.47 384.782 968.1 380.657 C 953.626 374.901 937.406 367.976 924.556 359.196 C 887.545 333.906 865.625 304.993 850.205 263.833 C 816.022 172.593 853.023 67.5804 941.558 23.7304 C 960.228 14.4834 978.41 11.1737 998.081 5.2637 C 1001.05 4.38565 1002.5 2.53111 1003.93 0 z M 603.717 790.378 C 627.728 787.634 639.649 790.023 661.809 791.07 C 667.169 742.897 668.685 696.946 711.341 663.399 C 748.483 634.189 795.551 629.364 841.077 633.19 L 841.477 620.857 C 837.678 601.026 838.404 581.039 838.68 560.91 C 833.483 555.685 828.108 550.491 822.994 545.191 C 804.746 526.276 784.189 513.435 768.159 492.103 C 764.907 487.988 759.959 484.046 755.782 480.78 C 744.194 476.241 730.641 459.858 722.136 450.265 C 716.943 446.72 710.842 438.036 704.832 437.533 C 693.491 436.584 680.755 437.128 669.336 437.313 L 590.21 438.738 C 570.854 439.063 543.104 437.495 524.713 439.945 C 508.822 454.051 510.584 464.21 501.903 482.373 C 494.352 498.172 484.971 517.833 473.665 531.366 C 468.768 537.227 448.221 552.394 447.901 557.125 C 491.424 623.388 536.55 689.315 580.495 755.354 C 588.751 767.761 593.422 779.004 603.717 790.378 z M 2000.64 948.14 C 2001.54 937.264 1984.78 908.89 1977.13 900.864 L 1975.49 901.126 C 1961.79 875.694 1922.13 849.224 1894.87 842.538 C 1816.59 823.345 1740.47 857.546 1707.4 932.183 C 1702.76 942.676 1699.98 953.45 1698.94 964.618 C 1699.96 972.712 1701.3 1022.22 1700.79 1030.96 C 1702.87 1035.77 1704.69 1039.46 1705.25 1044.79 C 1720.19 1072.14 1729.27 1090.09 1754.15 1111.24 C 1761.85 1117.79 1774.51 1126.31 1781.02 1132.37 C 1786.88 1134.07 1799.15 1140.9 1807.59 1143.53 C 1824.18 1148.7 1865.26 1147.89 1881.79 1147.12 C 1910.7 1145.76 1958.82 1109.74 1976.36 1086.87 C 1998.35 1058.21 2008.91 1027.25 2006.33 990.461 C 2005.37 976.887 2002.22 961.923 2000.64 948.14 z M 51.2259 961.446 C 51.3395 968.909 49.2032 975.044 48.9803 983.362 C 48.5386 999.845 51.2206 1018.11 51.1577 1033.98 C 58.6253 1051.54 61.8769 1063.27 74.3602 1079.97 C 87.3284 1096.81 100.035 1107.56 113.945 1122.81 C 124.148 1133.51 158.125 1148.02 173.363 1147.32 C 198.223 1146.17 228.528 1150.99 252.223 1141.9 C 260.455 1138.74 272.188 1129.46 279.615 1127.95 C 281.331 1125.22 287.871 1121.25 290.988 1118.17 C 302.486 1106.84 314.466 1095.68 325.659 1084.07 C 359.818 1044.46 363.819 988.603 346.702 940.87 C 340.544 925.792 328.833 905.244 318.189 892.791 C 311.957 885.5 303.822 878.487 297.213 870.565 L 296.408 869.59 C 294.132 868.844 293.496 867.954 291.52 866.331 C 256.906 837.912 219.554 835.343 177.139 838.933 C 158.025 840.55 124.481 851.451 111.914 867.21 C 106.226 873.691 83.5387 896.587 76.5937 901.614 C 62.5057 920.038 54.5609 938.45 51.2259 961.446 z M 908.375 105.629 C 872.83 144.42 873.816 214.233 893.302 257.747 C 893.321 257.816 893.341 257.885 893.36 257.955 C 911.256 288.125 931.932 300.111 951.111 323.676 C 961.544 328.219 975.133 338.628 988.303 341.046 C 989.368 341.241 989.788 341.531 990.813 342.023 C 1003.69 347.256 1025.23 345.422 1038.87 345.381 C 1067.62 345.295 1106.93 329.837 1126.17 307.609 L 1125.33 306.488 L 1126.87 304.872 C 1154.27 275.791 1177.94 239.246 1176.21 198.021 C 1175.83 161.225 1164.56 135.943 1144.34 106.086 C 1114.75 62.3805 1070.2 43.7416 1017.95 45.9115 C 993.616 46.9223 958.566 54.5189 940.898 73.309 C 932.172 83.147 918.423 97.0831 908.375 105.629 z M 913.962 1660.92 C 891.25 1694.55 884.738 1736.56 896.203 1775.49 C 907.796 1814.85 936.537 1846.87 974.419 1862.64 C 978.107 1864.18 981.862 1865.55 985.671 1866.76 C 1029.66 1880.67 1077.7 1871.34 1113.28 1841.98 C 1169.52 1795.57 1179.17 1713.06 1135.14 1654.93 C 1091.12 1596.8 1009.09 1583.72 949.169 1625.27 C 935.327 1634.87 923.39 1646.96 913.962 1660.92 z M 444.608 489.317 C 461.552 468.324 470.079 455.269 471.635 427.41 C 473.491 394.202 458.162 362.765 437.074 338.086 C 416.689 314.229 387.41 301.599 356.27 301.35 C 337.855 301.203 308.764 307.594 294.853 321.276 C 285.004 333.346 274.528 343.204 263.282 353.906 C 246.649 377.542 244.304 395.415 246.469 423.847 C 247.009 430.946 247.275 438.397 248.341 445.512 C 249.061 450.316 251.346 451.709 251.124 456.558 C 267.254 486.506 274.419 495.061 303.062 516.435 C 310.259 519.336 316.889 523.707 324.055 525.471 C 334.906 528.873 341.588 527.298 352.204 527.591 C 399.023 528.882 412.009 522.368 444.608 489.317 z M 1590.93 450.626 C 1596.36 480.871 1623.69 502.112 1647.7 518.726 C 1649.49 519.982 1651.32 521.179 1653.19 522.317 C 1676.59 529.241 1710.08 530.076 1734.29 524.893 C 1740.06 523.656 1755.79 514.816 1762.15 511.631 C 1764.53 507.254 1773.61 502.687 1777.55 498.995 C 1797.34 480.45 1810.98 456.666 1813.92 429.314 C 1814.82 415.336 1812.96 397.593 1807.29 385 C 1806.5 383.232 1805.91 384.362 1804.91 380.366 C 1799.48 362.627 1785.29 346.199 1775.03 331.275 C 1774.5 331.058 1762.67 321.929 1760.96 320.654 C 1744.7 308.634 1725.21 301.753 1705.01 300.897 C 1679.44 299.625 1652.49 304.732 1632.95 322.424 C 1627.28 330.486 1611.87 344.79 1604.31 351.98 C 1596.39 361.067 1591.88 370.899 1588.16 382.248 C 1572.6 429.725 1612.11 387.835 1636.98 418.505 C 1637.91 425.918 1640.33 438.04 1633.72 443.053 C 1624.46 450.08 1602.66 449.03 1590.93 450.626 z M 1805.39 1522.58 C 1799.7 1510.43 1796.87 1504.82 1788.57 1494.28 C 1783.22 1487.48 1770.58 1476.16 1767.35 1469.18 C 1734.13 1444.37 1674.24 1437.95 1637.97 1464.64 C 1626.55 1473.04 1614.35 1488.67 1604.42 1498.99 C 1582.94 1526.28 1587.65 1561.16 1591.09 1593.17 C 1591.7 1598.84 1594.04 1604.76 1596.01 1610.01 C 1601.69 1616.59 1605.38 1624.92 1610.89 1631.17 C 1618.95 1640.31 1628.68 1649.02 1638.16 1656.6 C 1641.51 1659.26 1647.78 1663.14 1650.32 1665.38 C 1658.5 1666.94 1665.14 1672.35 1674.03 1672.81 C 1700.96 1674.2 1723.65 1676.37 1748.67 1664.39 C 1748.72 1664.35 1748.77 1664.31 1748.81 1664.27 C 1765.45 1654.38 1784.72 1634.57 1797.62 1620.09 C 1816.81 1592.95 1818.89 1557.64 1807.42 1527.17 C 1807.08 1526.26 1806.32 1525.46 1805.83 1523.97 L 1805.39 1522.58 z M 370.605 1674.22 C 432.229 1666.83 476.505 1611.34 470.025 1549.61 C 463.545 1487.88 408.71 1442.79 346.894 1448.36 C 306.087 1452.04 270.424 1477.41 253.57 1514.75 C 236.716 1552.1 241.286 1595.63 265.528 1628.66 C 289.769 1661.69 329.924 1679.1 370.605 1674.22 z"/>
<path transform="translate(0,0)" fill="rgba(255, 255, 255, 1)" d="M 1630.04 972.401 C 1608.76 976.602 1561.31 974.364 1537.85 974.449 C 1510.81 974.565 1483.78 974.474 1456.75 974.176 C 1443.07 974.137 1397.89 976.076 1388.07 968.7 C 1380.59 949.632 1386.83 874.251 1384.74 848.353 C 1384.02 839.347 1385.07 770.662 1386.51 766.646 L 1388.11 769.487 C 1391.88 830.811 1386.4 900.181 1389.34 961.924 C 1392.3 965.023 1395.05 968.012 1398.24 970.887 L 1546.32 970.802 C 1567.63 970.795 1600.97 969.707 1621.43 971.056 C 1624.42 971.745 1627.61 971.993 1630.68 972.341 L 1630.04 972.401 z"/>
<path transform="translate(0,0)" fill="rgba(255, 255, 255, 1)" d="M 1388.44 1020.95 C 1387.46 1029.12 1388.04 1049.85 1388.06 1058.96 C 1388.12 1080.8 1387.9 1102.64 1387.41 1124.48 C 1384.03 1089.82 1384.5 1049.95 1387.1 1015.3 C 1388.63 1009.92 1401.33 1010.02 1404.89 1009.93 C 1428.31 1009.3 1451.74 1009.31 1475.14 1009.21 L 1578.24 1009.04 C 1591.8 1009.09 1646.55 1008.32 1655.55 1013.42 C 1657.38 1016.06 1656.93 1017.9 1656.84 1021.17 C 1654.38 1017.73 1652.83 1015.51 1649.99 1012.42 C 1636.24 1011.63 1619.31 1012.53 1605.27 1012.78 C 1586.7 1012.96 1568.13 1013.01 1549.56 1012.91 L 1450.74 1012.88 C 1433.65 1012.88 1416.47 1012.8 1399.37 1012.93 C 1396.47 1012.95 1393.2 1013.61 1390.94 1015.52 C 1389.19 1017.01 1388.86 1018.83 1388.44 1020.95 z"/>
<path transform="translate(0,0)" fill="rgba(255, 255, 255, 1)" d="M 656.735 970.465 C 660.255 967.35 662.399 965.501 666.257 962.849 C 666.183 965.288 666.441 969.145 664.374 970.356 C 654.204 976.315 625.776 974.772 615.181 974.832 L 549.429 974.809 C 511.788 974.701 455.227 976.11 419.184 973.37 C 416.242 973.145 413.31 972.798 410.397 972.33 C 416.331 972.111 431.22 971.927 436.412 971.04 C 507.926 968.478 585.476 973.217 656.735 970.465 z"/>
<path transform="translate(0,0)" fill="rgba(255, 255, 255, 1)" d="M 1003.68 1356.75 L 1004.63 1356.98 C 1007.76 1372.5 1006.98 1410.04 1007 1427.05 C 1007.04 1464.54 1007.42 1502.81 1005.38 1540.19 C 1003.85 1537.76 1004.06 1532.89 1003.26 1529.43 C 1002.28 1492.8 1003.3 1454.46 1002.92 1417.65 C 1002.79 1405.46 1002.22 1366.9 1003.68 1356.75 z"/>
<path transform="translate(0,0)" fill="rgba(255, 255, 255, 1)" d="M 525.985 396.189 C 538.016 392.956 654.093 393.471 665.321 396.044 C 654.139 398.625 531.813 399.543 525.985 396.189 z"/>
<path transform="translate(0,0)" fill="rgba(255, 255, 255, 1)" d="M 1259.71 510.259 C 1273.63 508.372 1293.04 508.831 1307.43 508.82 C 1329.53 508.742 1351.62 508.829 1373.71 509.082 C 1380.4 509.67 1389.73 509.656 1395.49 510.369 C 1367.39 513.961 1326.77 512.237 1297.82 512.587 C 1289.26 512.69 1267.41 512.407 1259.35 511.654 C 1259.39 510.452 1259.15 510.868 1259.71 510.259 z"/>
<path transform="translate(0,0)" fill="rgba(255, 255, 255, 1)" d="M 1003.66 627.772 C 1005.61 631.256 1005.54 629.604 1004.66 632.823 C 998.151 638.817 966.042 637.709 957.293 637.003 C 948.261 636.274 902.509 637.113 898.498 634.784 C 903.572 633.759 925.996 634.098 932.152 634.104 C 953.654 634.205 975.156 634.15 996.657 633.941 L 1003.66 627.772 z"/>
<path transform="translate(0,0)" fill="rgba(255, 255, 255, 1)" d="M 663.159 1071.51 C 663.48 1064.86 663.907 1058.21 664.442 1051.58 C 665.301 1063.93 669.072 1129.63 665.294 1140.27 C 661.475 1132.33 662.993 1083.05 663.159 1071.51 z"/>
<path transform="translate(0,0)" fill="rgba(255, 255, 255, 1)" d="M 1388.64 1143.49 C 1390 1145.84 1391.13 1148.75 1394.07 1149.27 C 1411.76 1152.42 1441.65 1147.35 1458.3 1152.12 C 1448.12 1154.47 1395.83 1155.84 1388.59 1149.3 C 1387.7 1146.33 1387.82 1146.52 1388.64 1143.49 z"/>
<path transform="translate(0,0)" fill="rgba(255, 255, 255, 1)" d="M 563.915 1010.83 C 574.141 1009.1 641.972 1008.03 649.305 1011.93 C 626.132 1013.35 586.71 1013.54 563.915 1010.83 z"/>
<path transform="translate(0,0)" fill="rgba(255, 255, 255, 1)" d="M 664.447 890.835 L 664.425 891.598 C 665.911 900.87 668.213 953.106 665.377 961.26 C 661.262 953.802 662.954 926.653 663.131 917.058 C 663.747 908.327 664.186 899.584 664.447 890.835 z"/>
<path transform="translate(0,0)" fill="rgba(255, 255, 255, 1)" d="M 500.477 1291.54 C 501.009 1290.68 511.918 1279.85 513.162 1278.71 C 519.064 1273.33 534.855 1253.89 540.849 1252.28 C 534.833 1261.21 510.459 1289.21 500.477 1291.54 z"/>
<path transform="translate(0,0)" fill="rgba(255, 255, 255, 1)" d="M 1004.97 582.877 C 1007.31 591.318 1007.73 616.637 1005.16 624.3 C 1001.34 617.722 1003.06 590.488 1004.97 582.877 z"/>
<path transform="translate(0,0)" fill="rgba(255, 255, 255, 1)" d="M 709.965 1540.31 C 704.843 1544.55 677.149 1544.85 670.628 1543.03 C 680.423 1539.99 699.356 1540.34 709.965 1540.31 z"/>
<path transform="translate(0,0)" fill="rgba(255, 255, 255, 1)" d="M 1858.04 973.541 C 1857.73 961.933 1853.3 941.893 1859.25 932.056 C 1863.09 925.706 1877.37 928.131 1882.22 932.496 C 1896.02 940.676 1935.02 979.218 1945.15 992.529 C 1937.46 1008.95 1923.43 1027.83 1908.57 1038.51 C 1905.23 1042.84 1882.64 1061.18 1876.56 1067.39 C 1871.2 1068.29 1863.23 1070.14 1859.77 1065.13 C 1852.78 1055.02 1857.52 1027.27 1858.3 1015.18 C 1835.03 1012.06 1815.08 1016.24 1790.94 1012.93 C 1787.39 1012.66 1786.59 1012.79 1783.35 1011.12 C 1777.29 1004.09 1777.46 982.304 1784.77 977.967 C 1801.79 967.858 1839.11 971.399 1858.04 973.541 z"/>
<path transform="translate(0,0)" fill="rgba(255, 255, 255, 1)" d="M 1908.57 1038.51 C 1909.63 1029.07 1948.55 1002.95 1937.12 988.947 C 1921.22 969.482 1898.77 953.08 1882 934.098 L 1882.22 932.496 C 1896.02 940.676 1935.02 979.218 1945.15 992.529 C 1937.46 1008.95 1923.43 1027.83 1908.57 1038.51 z"/>
<path transform="translate(0,0)" fill="rgba(255, 255, 255, 1)" d="M 1790.94 1012.93 C 1787.39 1012.66 1786.59 1012.79 1783.35 1011.12 C 1777.29 1004.09 1777.46 982.304 1784.77 977.967 C 1801.79 967.858 1839.11 971.399 1858.04 973.541 C 1844.19 984.548 1763.01 956.364 1786.51 1008.92 C 1787.04 1010.11 1790.2 1011 1791.58 1011.85 L 1790.94 1012.93 z"/>
<path transform="translate(0,0)" fill="rgba(255, 255, 255, 1)" d="M 114.987 983.867 C 130.723 962.737 161.099 938.302 182.321 922.503 C 190.742 916.234 196.797 924.447 199.951 931.833 C 203.542 946.723 204.736 957.533 202.316 973.064 C 202.102 974.434 202.155 973.747 202.184 975.238 C 210.446 975.088 218.897 974.803 227.065 974.47 C 238.215 974.016 264.011 968.06 273.255 973.132 C 280.727 981.553 279.309 988.281 283.249 998.493 C 279.444 1005.63 278.092 1008.2 271.61 1013.54 L 255.494 1014.05 C 241.724 1015.94 209.821 1012.08 198.863 1018.29 C 189.07 1023.85 206.273 1068.32 188.671 1069.15 C 181.156 1069.65 177.764 1065.96 173.189 1065.65 C 157.479 1060.74 123.422 1017.54 115.765 1001.49 C 114.695 999.248 114.946 987.159 114.987 983.867 z"/>
<path transform="translate(0,0)" fill="rgba(255, 255, 255, 1)" d="M 114.987 983.867 C 130.723 962.737 161.099 938.302 182.321 922.503 C 190.742 916.234 196.797 924.447 199.951 931.833 C 199.895 935.614 199.953 936.864 199.159 940.504 L 197.477 940.965 C 197.016 936.644 193.783 920.909 186.034 925.054 C 163.485 937.114 134.299 967.222 119.213 986.835 C 107.028 1002.68 163 1054.89 174.179 1064.71 L 173.189 1065.65 C 157.479 1060.74 123.422 1017.54 115.765 1001.49 C 114.695 999.248 114.946 987.159 114.987 983.867 z"/>
<path transform="translate(0,0)" fill="rgba(255, 255, 255, 1)" d="M 202.184 975.238 C 210.446 975.088 218.897 974.803 227.065 974.47 C 238.215 974.016 264.011 968.06 273.255 973.132 C 280.727 981.553 279.309 988.281 283.249 998.493 C 279.444 1005.63 278.092 1008.2 271.61 1013.54 L 255.494 1014.05 C 252.219 1013.72 248.281 1013.6 244.939 1013.41 C 259.301 1008.52 288.931 1021.58 272.986 977.565 C 271.798 974.286 249.854 976.623 246.438 976.997 C 230.332 978.761 215.443 978.889 199.301 976.661 L 202.184 975.238 z"/>
<path transform="translate(0,0)" fill="rgba(255, 255, 255, 1)" d="M 199.951 931.833 C 203.542 946.723 204.736 957.533 202.316 973.064 C 202.102 974.434 202.155 973.747 202.184 975.238 L 199.301 976.661 C 197.567 974.038 197.613 946.269 197.477 940.965 L 199.159 940.504 C 199.953 936.864 199.895 935.614 199.951 931.833 z"/>
<path transform="translate(0,0)" fill="rgba(255, 255, 255, 1)" d="M 963.165 207.853 C 956.688 203.452 948.964 198.391 954.539 190.036 C 966.241 172.509 981.603 158.921 997.922 145.888 C 1008.97 137.061 1019.16 118.549 1035.53 129.101 C 1044.72 135.385 1046.99 139.735 1054.02 147.53 C 1065.17 152.645 1109.94 189.627 1096.21 203.861 C 1094.17 206.586 1092.94 208.507 1089.23 208.798 C 1078.42 209.645 1059.88 208.127 1049.36 206.042 C 1048.89 214.554 1047.79 223.337 1046.81 231.826 C 1043.56 260.149 1043.68 265.136 1014.33 263.683 C 1000 254.465 1006.15 233.384 1005.62 218.738 C 1004.36 215.597 1004.49 204.816 1004.46 201.016 C 993.229 203.479 979.133 208.498 967.957 208.096 C 966.358 208.047 964.76 207.966 963.165 207.853 z"/>
<path transform="translate(0,0)" fill="rgba(255, 255, 255, 1)" d="M 963.165 207.853 C 956.688 203.452 948.964 198.391 954.539 190.036 C 966.241 172.509 981.603 158.921 997.922 145.888 C 1008.97 137.061 1019.16 118.549 1035.53 129.101 C 1030.11 129.797 1026.38 125.814 1020.13 130.586 C 1004.84 142.274 990.465 155.885 976.458 169.095 C 969.178 175.962 961.001 184.277 957.408 193.697 C 954.967 200.097 964.327 203.286 964.996 206.956 L 963.165 207.853 z"/>
<path transform="translate(0,0)" fill="rgba(255, 255, 255, 1)" d="M 1096.21 203.861 C 1093.33 199.236 1098.31 192.3 1089.53 182.29 C 1081.69 173.366 1058.95 157.065 1054.02 147.53 C 1065.17 152.645 1109.94 189.627 1096.21 203.861 z"/>
<path transform="translate(0,0)" fill="rgba(255, 255, 255, 1)" d="M 1005.62 218.738 L 1006.46 217.486 C 1007.77 229.501 1006.19 260.856 1021.72 262.523 L 1014.33 263.683 C 1000 254.465 1006.15 233.384 1005.62 218.738 z"/>
<path transform="translate(0,0)" fill="rgba(255, 255, 255, 1)" d="M 1027.07 1710.34 C 1039.29 1708.67 1050.34 1722.78 1058.55 1731.05 C 1057.6 1757.78 1058 1766.96 1029.47 1772.07 C 1012.5 1769.63 1009.06 1764.16 996.371 1752.79 C 996.966 1730.92 1003.99 1715.4 1027.07 1710.34 z"/>
<path transform="translate(0,0)" fill="rgba(255, 255, 255, 1)" d="M 1008.13 783.488 C 1050.95 783.169 1093.82 784.489 1136.89 784.106 L 1195.55 783.485 C 1205.74 783.443 1216.56 783.27 1226.72 784.265 C 1231.42 784.726 1237.17 788.174 1240.62 791.324 C 1252.68 802.369 1251.18 824.369 1240.25 835.574 C 1234.25 841.729 1224.47 841.322 1216.43 841.41 C 1200.43 841.584 1184.4 841.611 1168.39 841.712 L 1042.75 842.663 C 992.62 843.147 942.489 843.35 892.357 843.271 C 869.787 843.292 844.126 844.124 822.385 843.012 C 795.529 841.638 791.317 785.644 826.895 785.294 C 847.104 785.096 868.848 785.177 888.48 785.065 L 1008.13 783.488 z"/>
<path transform="translate(0,0)" fill="rgba(255, 255, 255, 1)" d="M 825.957 1147.2 C 859.73 1145 908.176 1147.89 944.18 1147.68 L 1151.52 1148.22 C 1175.93 1148.48 1212.39 1146.22 1235 1150.46 C 1246.76 1152.67 1255.59 1194.62 1229.8 1204.08 C 1219.7 1205.71 1191.29 1204.97 1180.03 1204.92 L 1090.52 1204.8 L 912.353 1205.72 C 888.366 1205.83 864.289 1206.22 840.316 1206.11 C 834.797 1205.74 825.072 1206.4 820.304 1203.48 C 807.262 1195.51 801.785 1169 809.445 1156.02 C 812.751 1150.42 819.821 1148.49 825.957 1147.2 z"/>
<path transform="translate(0,0)" fill="rgba(255, 255, 255, 1)" d="M 835.802 903.489 C 852.505 903.046 867.995 902.765 884.282 906.901 C 887.093 923.193 886.405 950.243 885.053 966.982 C 877.286 967.757 869.069 967.777 861.233 967.946 C 847.731 968.192 826.259 969.39 813.527 966.27 C 810.838 957.415 809.562 950.37 808.972 941.13 C 807.36 915.885 808.243 905.409 835.802 903.489 z"/>
<path transform="translate(0,0)" fill="rgba(255, 255, 255, 1)" d="M 966.61 904.453 C 974.644 904.558 997.852 904.157 1001.97 908.469 C 1007.39 914.157 1006.92 959.243 1000.85 966.057 C 997.152 970.213 976.387 969.727 970.72 969.797 C 959.439 969.751 945.313 969.632 934.347 967.587 C 931.57 957.704 927.002 919.196 934.194 909.567 C 937.721 904.845 959.159 904.778 966.61 904.453 z"/>
<path transform="translate(0,0)" fill="rgba(255, 255, 255, 1)" d="M 953.662 1017.43 C 967.825 1016.48 987.454 1017.43 1001.3 1019.61 C 1004.38 1034.94 1003.53 1060.21 1001.66 1075.88 C 993.435 1078.8 984.879 1079.63 976.249 1080.45 C 935.712 1082.74 926.628 1085.97 926.773 1040.79 C 926.851 1016.76 931.043 1018.78 953.662 1017.43 z"/>
<path transform="translate(0,0)" fill="rgba(255, 255, 255, 1)" d="M 827.853 1019.43 C 843.476 1018.94 868.288 1018.6 882.968 1022.34 C 885.15 1037.32 884.52 1061.16 884.222 1076.42 C 875.6 1077.93 869.505 1078.57 860.755 1079.25 C 853.446 1080.12 844.828 1079.9 837.75 1080.53 C 816.188 1082.44 804.101 1077.31 805.348 1053.28 C 805.766 1045.23 804.45 1030.93 808.428 1023.69 C 813.69 1019.6 821.063 1019.93 827.853 1019.43 z"/>
<path transform="translate(0,0)" fill="rgba(255, 255, 255, 1)" d="M 1084.24 901.341 C 1093.42 900.574 1101.38 900.98 1109.56 905.787 C 1118.04 910.748 1124.09 919 1126.27 928.582 C 1128.38 937.819 1126.59 947.516 1121.34 955.4 C 1115.81 963.595 1107.66 968.756 1097.99 970.471 C 1043.12 971.986 1037.84 910.675 1084.24 901.341 z"/>
<path transform="translate(0,0)" fill="rgba(255, 255, 255, 1)" d="M 1211.78 1009.39 C 1228.27 1010.55 1245.34 1017.6 1249.66 1035.29 C 1251.64 1043.6 1250.13 1052.36 1245.46 1059.52 C 1238.57 1070.14 1228.7 1074.62 1216.82 1076.91 C 1206.83 1077.25 1199.11 1076.9 1190.66 1070.71 C 1183.7 1065.65 1179.08 1057.99 1177.86 1049.48 C 1176.39 1040.03 1178.92 1030.41 1184.85 1022.91 C 1192.13 1013.82 1200.77 1010.61 1211.78 1009.39 z"/>
<path transform="translate(0,0)" fill="rgba(255, 255, 255, 1)" d="M 768.159 492.103 C 773.472 492.707 795.288 515.046 801.099 520.379 C 814.341 532.532 831.546 545.615 842.382 559.794 C 842.869 574.442 843.361 607.204 842.365 621.371 L 841.477 620.857 C 837.678 601.026 838.404 581.039 838.68 560.91 C 833.483 555.685 828.108 550.491 822.994 545.191 C 804.746 526.276 784.189 513.435 768.159 492.103 z"/>
<path transform="translate(0,0)" fill="rgba(255, 255, 255, 1)" d="M 1113.28 1841.98 C 1111.85 1846.69 1093.63 1857.45 1088.68 1860.3 C 1063.97 1874.54 1011.43 1880.14 985.671 1866.76 C 1029.66 1880.67 1077.7 1871.34 1113.28 1841.98 z"/>
<path transform="translate(0,0)" fill="rgba(255, 255, 255, 1)" fill-opacity="0.988235" d="M 1125.33 306.488 L 1126.17 307.609 C 1106.93 329.837 1067.62 345.295 1038.87 345.381 C 1025.23 345.422 1003.69 347.256 990.813 342.023 C 1015.85 339.785 1045.23 343.639 1068.9 339.256 C 1083.89 336.481 1113.18 316.622 1125.33 306.488 z"/>
<path transform="translate(0,0)" fill="rgba(255, 255, 255, 1)" d="M 974.419 1862.64 C 970.741 1862.44 968.042 1861.34 964.61 1859.79 C 934.733 1846.24 911.249 1821.52 898.747 1791.26 C 896.997 1787.02 894.345 1779.55 896.203 1775.49 C 907.796 1814.85 936.537 1846.87 974.419 1862.64 z"/>
<path transform="translate(0,0)" fill="rgba(255, 255, 255, 1)" d="M 444.608 489.317 C 444.507 493.566 437.751 500.564 434.675 503.642 C 410.682 527.649 357.306 539.526 325.509 527.263 L 324.055 525.471 C 334.906 528.873 341.588 527.298 352.204 527.591 C 399.023 528.882 412.009 522.368 444.608 489.317 z"/>
<path transform="translate(0,0)" fill="rgba(255, 255, 255, 1)" d="M 1705.25 1044.79 C 1720.19 1072.14 1729.27 1090.09 1754.15 1111.24 C 1761.85 1117.79 1774.51 1126.31 1781.02 1132.37 C 1763.88 1126.24 1743.24 1107.91 1731.98 1093.95 C 1724.02 1084.08 1706.54 1057.45 1705.25 1044.79 z"/>
<path transform="translate(0,0)" fill="rgba(255, 255, 255, 1)" d="M 296.408 869.59 C 311.53 874.739 335.337 907.257 341.812 921.596 C 343.945 926.318 351.119 941.518 350.399 946.448 C 349.137 944.609 347.904 942.749 346.702 940.87 C 340.544 925.792 328.833 905.244 318.189 892.791 C 311.957 885.5 303.822 878.487 297.213 870.565 L 296.408 869.59 z"/>
<path transform="translate(0,0)" fill="rgba(255, 255, 255, 1)" d="M 1762.15 511.631 L 1763.18 512.454 C 1740 530.698 1676.96 540.941 1653.19 522.317 C 1676.59 529.241 1710.08 530.076 1734.29 524.893 C 1740.06 523.656 1755.79 514.816 1762.15 511.631 z"/>
<path transform="translate(0,0)" fill="rgba(255, 255, 255, 1)" d="M 951.111 323.676 C 936.16 316.906 893.539 274.163 893.36 257.955 C 911.256 288.125 931.932 300.111 951.111 323.676 z"/>
<path transform="translate(0,0)" fill="rgba(255, 255, 255, 1)" d="M 1767.35 1469.18 C 1785.07 1478.18 1801.25 1502.32 1807.55 1521.13 L 1807.02 1522.36 L 1805.39 1522.58 C 1799.7 1510.43 1796.87 1504.82 1788.57 1494.28 C 1783.22 1487.48 1770.58 1476.16 1767.35 1469.18 z"/>
<path transform="translate(0,0)" fill="rgba(255, 255, 255, 1)" d="M 1650.32 1665.38 C 1632.53 1661.5 1598.03 1628.4 1596.01 1610.01 C 1601.69 1616.59 1605.38 1624.92 1610.89 1631.17 C 1618.95 1640.31 1628.68 1649.02 1638.16 1656.6 C 1641.51 1659.26 1647.78 1663.14 1650.32 1665.38 z"/>
<path transform="translate(0,0)" fill="rgba(255, 255, 255, 1)" d="M 1698.94 964.618 C 1699.96 972.712 1701.3 1022.22 1700.79 1030.96 C 1695.61 1020.68 1692.57 974.676 1698.94 964.618 z"/>
<path transform="translate(0,0)" fill="rgba(255, 255, 255, 1)" d="M 1797.62 1620.09 C 1797.3 1631.03 1761.5 1663.34 1749.98 1665.21 L 1748.67 1664.39 C 1748.72 1664.35 1748.77 1664.31 1748.81 1664.27 C 1765.45 1654.38 1784.72 1634.57 1797.62 1620.09 z"/>
<path transform="translate(0,0)" fill="rgba(255, 255, 255, 1)" d="M 325.659 1084.07 C 325.447 1094.45 291.28 1123.45 281.21 1128.36 L 279.615 1127.95 C 281.331 1125.22 287.871 1121.25 290.988 1118.17 C 302.486 1106.84 314.466 1095.68 325.659 1084.07 z"/>
<path transform="translate(0,0)" fill="rgba(255, 255, 255, 1)" d="M 913.962 1660.92 C 917.046 1649.04 938.196 1630.41 949.169 1625.27 C 935.327 1634.87 923.39 1646.96 913.962 1660.92 z"/>
<path transform="translate(0,0)" fill="rgba(255, 255, 255, 1)" d="M 303.062 516.435 C 284.862 510.82 251.116 475.392 251.124 456.558 C 267.254 486.506 274.419 495.061 303.062 516.435 z"/>
<path transform="translate(0,0)" fill="rgba(255, 255, 255, 1)" d="M 1775.03 331.275 C 1785.77 337.878 1808.48 368.843 1808.25 381.104 L 1807.57 381.663 L 1804.91 380.366 C 1799.48 362.627 1785.29 346.199 1775.03 331.275 z"/>
<path transform="translate(0,0)" fill="rgba(255, 255, 255, 1)" d="M 76.5937 901.614 C 78.5441 893.603 103.685 865.523 111.914 867.21 C 106.226 873.691 83.5387 896.587 76.5937 901.614 z"/>
<path transform="translate(0,0)" fill="rgba(255, 255, 255, 1)" d="M 113.945 1122.81 C 105.037 1121.96 74.4592 1089.72 74.3602 1079.97 C 87.3284 1096.81 100.035 1107.56 113.945 1122.81 z"/>
<path transform="translate(0,0)" fill="rgba(255, 255, 255, 1)" fill-opacity="0.988235" d="M 1975.49 901.126 L 1977.13 900.864 C 1984.78 908.89 2001.54 937.264 2000.64 948.14 C 1993.99 938.04 1981.92 912.994 1975.49 901.126 z"/>
<path transform="translate(0,0)" fill="rgba(255, 255, 255, 1)" d="M 51.1577 1033.98 C 45.9761 1027.34 44.2036 968.317 51.2259 961.446 C 51.3395 968.909 49.2032 975.044 48.9803 983.362 C 48.5386 999.845 51.2206 1018.11 51.1577 1033.98 z"/>
<path transform="translate(0,0)" fill="rgba(255, 255, 255, 1)" d="M 263.282 353.906 C 263.922 345.011 286.751 322.183 294.853 321.276 C 285.004 333.346 274.528 343.204 263.282 353.906 z"/>
<path transform="translate(0,0)" fill="rgba(255, 255, 255, 1)" d="M 908.375 105.629 C 908.733 98.3766 933.785 73.6722 940.898 73.309 C 932.172 83.147 918.423 97.0831 908.375 105.629 z"/>
<path transform="translate(0,0)" fill="rgba(255, 255, 255, 1)" d="M 722.136 450.265 C 727.171 450.775 753.958 475.447 755.782 480.78 C 744.194 476.241 730.641 459.858 722.136 450.265 z"/>
<path transform="translate(0,0)" fill="rgba(255, 255, 255, 1)" d="M 1604.31 351.98 C 1604.92 342.902 1624.35 324.564 1632.95 322.424 C 1627.28 330.486 1611.87 344.79 1604.31 351.98 z"/>
<path transform="translate(0,0)" fill="rgba(255, 255, 255, 1)" d="M 1337 308.511 C 1345.34 302.251 1363.84 304.602 1373.34 307.278 C 1373.79 307.389 1374.24 307.508 1374.69 307.61 C 1386.5 310.302 1449.88 308.518 1465.93 307.905 C 1475.41 307.542 1485.45 305.749 1494.89 306.998 C 1499.45 307.601 1504.26 308.396 1507.03 312.394 C 1510.74 317.752 1510.49 328.016 1508.78 333.983 C 1507.75 337.591 1505.9 339.894 1502.56 341.618 C 1481.41 352.554 1387.29 341.426 1378.9 351.312 C 1377.4 368.973 1441.2 389.53 1409.34 411.48 C 1403.97 415.178 1398.38 418.582 1392.8 421.962 C 1377.55 416.656 1361.54 402.133 1350.88 389.755 C 1319.27 353.058 1286.48 349.8 1337 308.511 z"/>
<path transform="translate(0,0)" fill="rgba(255, 255, 255, 1)" d="M 1337 308.511 C 1345.34 302.251 1363.84 304.602 1373.34 307.278 C 1362.13 308.522 1348.53 308.223 1337 308.511 z"/>
</g></svg></svg></svg>